<?xml version="1.0" standalone="no"?>
<!DOCTYPE svg PUBLIC "-//W3C//DTD SVG 20010904//EN"
 "http://www.w3.org/TR/2001/REC-SVG-20010904/DTD/svg10.dtd">
<svg version="1.0" xmlns="http://www.w3.org/2000/svg"
 width="500.000000pt" height="500.000000pt" viewBox="0 0 500.000000 500.000000"
 preserveAspectRatio="xMidYMid meet">
<metadata>
Created by potrace 1.14, written by Peter Selinger 2001-2017
</metadata>
<g transform="translate(0.000000,500.000000) scale(0.100000,-0.100000)"
fill="#000000" stroke="none">
<path d="M868 2981 c-154 -311 -380 -766 -502 -1011 -121 -245 -222 -448 -224
-452 -2 -4 48 -5 110 -3 62 2 187 6 278 9 91 3 228 8 305 11 308 12 377 14
560 20 105 3 233 8 285 10 52 2 187 7 300 10 113 3 266 7 340 10 74 3 203 7
285 10 83 3 209 7 280 10 72 2 211 7 310 11 99 3 218 7 265 9 98 4 488 16 635
20 111 3 512 17 590 20 28 2 74 3 103 4 40 1 51 4 45 14 -4 6 -8 17 -10 22 -1
6 -15 48 -31 95 -17 47 -65 193 -107 325 -43 132 -90 278 -106 325 -15 47 -57
175 -92 285 -163 504 -248 761 -255 772 -8 12 -10 12 -1832 29 -349 3 -774 7
-943 8 l-309 3 -280 -566z m2077 474 c270 -2 655 -5 856 -5 l367 -2 20 -66
c28 -90 151 -498 197 -652 21 -69 53 -174 71 -235 19 -60 38 -123 43 -140 50
-164 68 -226 98 -325 19 -63 41 -135 49 -159 8 -25 13 -45 11 -47 -1 -1 -96
-5 -212 -9 -115 -3 -268 -8 -340 -10 -71 -2 -215 -7 -320 -10 -104 -3 -251 -8
-325 -10 -74 -3 -234 -7 -355 -10 -121 -3 -278 -7 -350 -10 -71 -2 -222 -7
-335 -10 -113 -3 -259 -8 -325 -10 -66 -2 -208 -7 -315 -10 -107 -3 -253 -8
-325 -10 -71 -2 -215 -7 -320 -9 -104 -3 -284 -8 -400 -12 -115 -3 -236 -7
-267 -8 -32 -2 -58 -2 -58 0 0 3 47 106 105 229 18 39 47 102 65 140 18 39 49
106 70 150 21 44 49 105 63 135 97 211 420 906 465 1002 l56 118 610 -5 c336
-3 832 -7 1101 -10z"/>
<path d="M2581 3196 c-7 -8 -33 -25 -58 -37 -28 -14 -41 -25 -35 -31 6 -6 24
-2 50 11 23 12 56 21 74 21 31 -1 32 -2 14 -15 -11 -8 -30 -12 -47 -8 -18 3
-29 1 -29 -6 0 -6 5 -11 11 -11 25 0 -4 -18 -46 -29 -25 -6 -45 -16 -45 -21 0
-13 36 -13 59 0 17 8 18 5 14 -31 -5 -39 -4 -40 15 -30 27 15 115 14 130 -1
14 -14 19 -2 24 54 l4 37 -56 3 -55 3 47 30 c26 16 44 33 42 37 -3 4 -23 8
-45 8 -24 0 -38 4 -36 11 3 18 -19 21 -32 5z m97 -133 c-2 -14 -15 -19 -55
-21 -51 -3 -55 0 -44 36 1 1 24 2 52 2 43 0 50 -3 47 -17z"/>
<path d="M2830 3193 c0 -8 -12 -13 -29 -13 -17 0 -33 -4 -36 -10 -4 -6 9 -10
32 -10 26 0 34 -3 24 -9 -8 -5 -20 -7 -28 -4 -7 3 -13 1 -14 -3 0 -5 -2 -19
-5 -31 -2 -12 1 -25 7 -28 13 -9 20 -2 23 21 4 25 26 30 26 6 0 -12 -14 -30
-32 -43 -18 -12 -35 -24 -37 -25 -1 -2 0 -8 4 -14 4 -7 17 -3 37 11 28 20 30
20 28 3 -4 -34 0 -43 15 -38 10 4 13 13 10 24 -8 25 10 34 29 14 9 -8 20 -12
26 -9 16 10 12 19 -20 37 -32 18 -42 58 -15 58 18 0 20 -16 4 -26 -8 -4 -7 -9
2 -15 18 -11 36 6 34 33 -1 18 -8 23 -28 22 -15 0 -27 4 -27 8 0 4 14 8 30 8
17 0 30 5 30 10 0 6 -13 10 -30 10 -18 0 -30 5 -30 13 0 8 -7 14 -15 14 -8 0
-15 -6 -15 -14z"/>
<path d="M1400 3184 c-8 -8 -34 -27 -59 -41 -25 -15 -48 -28 -50 -29 -1 -2 0
-8 4 -14 5 -7 20 -3 48 14 42 24 101 39 111 29 10 -10 -47 -51 -116 -85 -37
-18 -68 -37 -68 -41 0 -28 148 46 218 108 37 33 29 45 -25 40 -18 -1 -33 1
-33 6 0 5 5 9 11 9 5 0 7 5 4 10 -9 15 -31 12 -45 -6z"/>
<path d="M2000 3181 c-7 -14 -19 -19 -41 -18 -28 2 -33 -2 -45 -35 -12 -35
-12 -38 6 -38 13 0 22 9 26 25 4 17 13 25 28 26 11 0 40 1 64 2 23 1 42 0 42
-1 0 -18 -52 -68 -93 -92 -39 -22 -47 -31 -34 -36 25 -9 100 39 143 92 42 51
37 65 -24 58 -31 -4 -34 -2 -29 16 7 27 -28 28 -43 1z"/>
<path d="M2270 3196 c0 -2 -7 -40 -15 -83 -19 -99 -19 -105 2 -101 12 2 20 17
25 47 4 24 9 46 12 48 2 3 19 -3 36 -12 29 -15 34 -15 47 -2 13 13 11 16 -23
28 -22 7 -42 14 -46 15 -5 1 -10 2 -12 3 -3 0 -1 15 4 31 7 26 6 30 -11 30
-10 0 -19 -2 -19 -4z"/>
<path d="M2403 3183 c9 -9 19 -14 23 -11 10 10 -6 28 -24 28 -15 0 -15 -1 1
-17z"/>
<path d="M2985 3133 c1 -84 -4 -106 -21 -99 -8 3 -14 -1 -14 -9 0 -18 46 -20
57 -2 4 6 8 49 8 95 1 68 -2 82 -15 82 -12 0 -15 -13 -15 -67z"/>
<path d="M3210 3175 c0 -21 -5 -25 -31 -25 -26 0 -31 3 -26 20 4 16 0 20 -18
20 -18 0 -22 -4 -18 -20 5 -17 0 -20 -26 -20 -21 0 -31 -5 -31 -15 0 -10 9
-14 30 -11 26 3 30 0 30 -20 0 -17 6 -24 19 -24 14 0 19 6 16 20 -2 11 -1 21
3 21 42 8 52 5 52 -16 0 -25 -39 -65 -63 -65 -9 0 -17 -4 -17 -9 0 -36 97 8
107 49 4 14 7 29 8 35 0 5 12 9 28 10 39 0 38 19 -1 23 -23 2 -32 8 -29 16 6
14 -10 36 -25 36 -4 0 -8 -11 -8 -25z"/>
<path d="M3820 3190 c0 -5 -8 -10 -17 -10 -15 0 -14 -2 3 -15 26 -20 40 -19
23 1 -12 15 -11 16 11 9 22 -7 23 -6 11 9 -15 18 -31 21 -31 6z"/>
<path d="M1652 3178 c6 -17 136 -18 150 -1 8 10 -6 13 -72 13 -58 0 -81 -3
-78 -12z"/>
<path d="M2360 3181 c0 -13 26 -32 33 -24 8 7 -11 33 -24 33 -5 0 -9 -4 -9 -9z"/>
<path d="M2930 3125 c0 -61 9 -80 26 -53 4 6 8 33 8 59 1 44 -7 59 -30 59 -2
0 -4 -29 -4 -65z"/>
<path d="M3667 3113 c8 -37 19 -71 26 -75 7 -5 44 -7 82 -6 85 4 87 23 2 23
-40 0 -61 5 -67 15 -13 21 -5 27 56 47 48 15 53 19 39 29 -14 10 -25 9 -61 -6
-37 -16 -44 -17 -45 -5 -1 8 -2 21 -3 28 0 6 -10 13 -22 15 -20 3 -21 2 -7
-65z"/>
<path d="M3923 3165 c2 -5 29 -11 60 -13 31 -2 57 -7 57 -11 0 -10 -66 -70
-96 -87 -10 -7 -16 -15 -12 -19 11 -12 51 2 81 29 l28 24 45 -30 c31 -20 49
-27 56 -20 10 10 -39 52 -60 52 -20 0 -23 19 -7 44 12 18 13 26 4 32 -19 11
-160 11 -156 -1z"/>
<path d="M1610 3133 c0 -10 18 -13 71 -13 88 0 87 -11 -5 -61 -48 -26 -63 -38
-51 -43 31 -12 191 91 182 117 -6 18 -197 18 -197 0z"/>
<path d="M3356 3105 c8 -20 228 -23 222 -2 -3 8 -38 13 -116 15 -96 2 -111 0
-106 -13z"/>
<path d="M1480 2836 c-4 -12 -6 -24 -3 -28 6 -10 10 -10 -164 -12 -85 -1 -156
-6 -162 -11 -5 -6 -12 -20 -15 -32 -7 -22 -6 -22 64 -19 69 4 74 3 104 -26 17
-17 40 -36 50 -44 25 -17 20 -22 -30 -29 -21 -3 -49 -8 -62 -11 -31 -6 -148
-20 -199 -23 -8 -1 -13 -15 -13 -36 l0 -35 62 6 c35 3 66 8 70 10 14 9 8 -7
-28 -82 -47 -95 -87 -141 -168 -193 l-65 -42 32 -29 c30 -26 32 -27 57 -12 38
24 108 81 143 117 l32 33 159 1 c88 1 163 4 167 7 15 9 10 -30 -11 -90 -23
-69 -20 -71 81 -57 4 1 9 15 13 33 3 17 25 98 47 178 l41 147 41 -4 c23 -2 50
-5 59 -7 11 -2 27 9 44 31 14 19 24 36 23 37 -2 2 -44 6 -94 10 -161 11 -216
25 -165 41 11 3 42 21 69 40 44 31 57 34 127 37 75 3 78 4 85 31 l7 27 -153
-2 c-85 -1 -157 1 -161 5 -4 3 -1 13 6 22 17 21 8 28 -41 30 -33 2 -42 -2 -49
-19z m96 -112 c-11 -7 -39 -21 -62 -30 -41 -16 -44 -16 -78 6 -20 12 -36 25
-36 29 0 4 44 8 98 8 85 1 95 0 78 -13z m-47 -138 c61 -17 65 -20 58 -40 -9
-22 -307 -24 -307 -2 0 9 17 20 43 27 23 6 60 17 82 24 43 14 43 14 124 -9z
m31 -134 c0 -37 -12 -40 -176 -44 l-161 -3 14 30 14 30 155 2 c139 2 154 0
154 -15z"/>
<path d="M2189 2850 c-1 -5 -2 -16 -3 -22 -1 -10 -28 -13 -101 -13 -103 0
-112 -4 -114 -45 -1 -13 15 -15 99 -13 92 3 100 1 100 -16 0 -28 70 -28 77 0
5 17 15 19 79 19 54 0 74 -4 74 -13 0 -17 68 -16 79 1 6 9 37 13 109 13 l102
0 0 29 0 30 -100 -3 c-97 -3 -100 -2 -98 17 3 18 -2 21 -37 21 -31 0 -40 -4
-45 -20 -4 -18 -14 -20 -77 -21 -71 -1 -72 0 -67 23 6 21 3 23 -35 23 -23 0
-42 -4 -42 -10z"/>
<path d="M3875 2833 c10 -24 24 -73 22 -74 -1 0 -20 -2 -42 -4 -22 -1 -87 -6
-145 -10 -58 -4 -113 -7 -122 -7 -22 1 -22 3 -3 -42 16 -37 23 -39 83 -20 7 2
61 7 120 10 59 3 110 8 115 11 4 2 7 3 7 1 0 -2 4 -17 9 -34 l9 -32 -38 5
c-94 13 -147 -41 -119 -120 24 -69 111 -108 170 -77 51 28 -2 -66 -66 -115
l-40 -30 44 -23 43 -22 37 27 c97 73 118 154 75 278 -14 39 -27 86 -29 107
l-4 36 116 1 c64 1 119 3 121 6 2 2 0 16 -5 32 l-10 28 -121 -2 -122 -1 0 38
c0 42 -5 46 -69 49 -38 2 -43 0 -36 -16z m53 -267 c19 -18 8 -62 -16 -68 -27
-8 -61 9 -71 34 -18 46 50 72 87 34z"/>
<path d="M3379 2806 c-2 -2 -32 -7 -65 -10 -34 -3 -77 -8 -95 -11 -52 -7 -187
-24 -254 -31 -33 -3 -63 -8 -66 -10 -3 -1 -26 -4 -52 -5 -51 -3 -53 -5 -35
-46 16 -35 28 -44 47 -34 9 5 39 12 66 16 28 5 57 10 65 11 8 2 33 6 55 9 22
3 58 10 80 15 49 11 56 6 18 -13 -36 -19 -76 -62 -98 -105 -21 -44 -21 -131 1
-177 34 -72 135 -128 248 -139 49 -5 57 -3 66 15 6 11 10 32 8 47 -3 25 -7 27
-63 33 -132 14 -194 71 -185 169 8 88 151 190 267 190 27 0 33 4 33 21 0 36
-25 70 -41 55z"/>
<path d="M2400 2689 c-7 -21 -17 -39 -21 -39 -5 0 -15 16 -23 35 -13 31 -17
34 -39 26 -14 -6 -28 -7 -32 -3 -4 4 -4 -8 0 -25 6 -31 5 -33 -19 -33 -14 0
-26 -4 -26 -9 0 -5 -3 -17 -6 -26 -6 -14 1 -16 54 -13 67 3 81 -2 56 -23 -10
-8 -41 -14 -78 -15 -59 0 -61 -1 -64 -27 -3 -25 -1 -27 34 -27 43 0 39 -6 -27
-44 l-46 -26 13 63 c7 34 15 76 17 92 3 17 8 48 12 71 l7 41 -110 -1 -110 0
-17 -84 c-30 -154 -65 -255 -110 -321 l-32 -49 28 -26 28 -27 26 34 c15 18 39
62 55 97 28 63 30 65 69 68 l40 3 -6 -48 c-7 -59 -17 -73 -54 -73 -26 0 -29
-3 -26 -32 3 -37 23 -45 83 -33 41 7 61 35 69 95 3 25 8 54 10 65 2 11 4 29 4
40 1 19 3 18 20 -5 23 -29 30 -26 132 50 60 45 71 49 128 52 59 3 64 2 90 -27
25 -29 104 -95 113 -95 2 0 14 13 26 29 l21 29 -44 29 c-25 15 -45 31 -45 34
0 3 17 5 38 5 33 -1 37 2 40 26 3 27 3 27 -57 26 -55 -1 -91 11 -91 32 0 4 25
7 55 6 63 -2 71 1 70 29 0 16 -6 20 -32 19 -36 -1 -45 18 -16 35 22 12 16 18
-22 25 -24 5 -34 0 -58 -29 -16 -19 -37 -35 -48 -35 -23 0 -24 9 -3 38 19 28
19 28 -27 35 -35 5 -37 4 -49 -34z m-276 -66 c-9 -35 -7 -33 -35 -35 -41 -2
-49 1 -44 17 3 8 7 22 10 30 3 10 17 15 40 15 34 0 35 -1 29 -27z m345 -53
c-7 -8 -49 -7 -55 1 -2 4 6 15 18 23 20 15 23 14 32 -2 5 -9 8 -19 5 -22z
m-368 -72 c-6 -30 -10 -33 -48 -36 l-42 -3 10 33 c5 18 9 34 9 35 0 2 17 3 39
3 38 0 38 0 32 -32z"/>
<path d="M3382 2678 c-8 -8 -1 -20 31 -49 47 -43 59 -46 78 -23 11 13 7 20
-26 50 -40 36 -63 42 -83 22z"/>
<path d="M3318 2636 c-15 -11 -13 -16 27 -54 41 -38 46 -40 69 -28 28 14 26
18 -27 64 -42 36 -45 37 -69 18z"/>
<path d="M2383 2468 c1 -20 -8 -96 -16 -148 -5 -29 -19 -40 -51 -40 -31 0 -33
-2 -28 -27 6 -36 19 -43 62 -37 88 13 88 14 105 182 3 35 9 70 12 78 4 11 -5
14 -40 14 -40 0 -45 -2 -44 -22z"/>
<path d="M2486 2422 c-24 -26 -25 -30 -11 -42 14 -11 13 -14 -2 -25 -15 -11
-15 -15 -3 -30 19 -23 96 -75 111 -75 6 0 22 11 35 25 l23 25 -37 20 c-20 11
-46 27 -57 35 -19 15 -19 16 9 39 l29 23 -24 16 c-32 23 -41 22 -73 -11z"/>
<path d="M2282 2425 c-21 -15 -21 -17 -6 -41 16 -24 16 -24 -44 -52 l-60 -27
13 -32 13 -31 77 40 c73 38 77 42 71 69 -3 16 -1 29 4 29 16 0 11 26 -8 43
-23 21 -32 21 -60 2z"/>
</g>
</svg>
