<?xml version="1.0" standalone="no"?>
<!DOCTYPE svg PUBLIC "-//W3C//DTD SVG 20010904//EN"
 "http://www.w3.org/TR/2001/REC-SVG-20010904/DTD/svg10.dtd">
<svg version="1.0" xmlns="http://www.w3.org/2000/svg"
 width="800.000000pt" height="800.000000pt" viewBox="0 0 800.000000 800.000000"
 preserveAspectRatio="xMidYMid meet">
<metadata>
Created by potrace 1.14, written by Peter Selinger 2001-2017
</metadata>
<g transform="translate(0.000000,800.000000) scale(0.100000,-0.100000)"
fill="#000000" stroke="none">
<path d="M0 5020 c0 -1639 4 -2980 8 -2980 4 0 14 6 22 12 12 11 12 10 2 -4
-9 -11 -10 -18 -2 -23 6 -3 8 -11 4 -16 -3 -6 -12 -5 -22 3 -13 11 -14 11 -7
-2 13 -20 13 -31 2 -54 -7 -14 -6 -16 4 -11 9 6 10 3 6 -10 -9 -22 10 -46 30
-38 10 4 14 2 10 -4 -3 -5 1 -10 9 -10 11 0 9 6 -8 24 -12 13 -17 23 -12 23 5
0 0 7 -10 15 -11 8 -16 18 -12 22 4 5 19 -5 33 -21 20 -23 27 -26 34 -15 6 10
9 10 9 2 0 -19 -4 -28 -12 -26 -4 2 -4 -5 -1 -14 4 -11 8 -13 11 -5 2 7 10 12
17 12 7 0 16 6 18 13 4 9 6 9 6 0 1 -7 8 -10 18 -7 15 5 15 4 3 -4 -8 -6 -17
-9 -20 -7 -3 1 -11 -3 -18 -11 -10 -11 -8 -15 13 -20 14 -3 23 -10 20 -14 -3
-5 -1 -11 5 -15 6 -4 8 -11 5 -16 -4 -5 1 -9 9 -9 9 0 16 -7 16 -15 0 -8 -5
-15 -11 -15 -5 0 -7 5 -3 12 5 7 3 8 -5 3 -9 -5 -9 -11 -3 -17 6 -6 15 -7 21
-4 14 9 14 43 1 51 -5 3 -6 13 -3 22 4 11 3 14 -5 9 -7 -4 -12 -2 -12 3 0 13
10 14 29 2 9 -6 10 -11 2 -15 -12 -8 39 -67 51 -59 5 2 8 0 8 -6 0 -5 -5 -11
-12 -13 -18 -6 1 -28 25 -29 21 0 21 -1 2 -8 -11 -5 -24 -6 -30 -3 -5 3 -4 -2
4 -11 15 -18 26 -23 16 -7 -3 5 -1 10 4 10 6 0 11 -9 11 -20 0 -11 4 -20 9
-20 5 0 7 10 4 23 -3 16 -2 18 5 8 7 -9 12 -10 16 -2 4 6 13 11 19 11 8 0 7
-4 -2 -9 -8 -5 -16 -17 -17 -26 -2 -15 -1 -16 16 0 16 15 18 15 24 0 9 -23 7
-32 -3 -17 -6 10 -10 7 -15 -13 -4 -15 -5 -30 -1 -33 3 -3 5 3 5 12 0 11 5 16
14 13 7 -3 18 -2 22 1 5 4 2 0 -7 -9 -16 -14 -15 -16 12 -16 16 0 32 -3 35 -6
9 -9 -16 -38 -27 -32 -4 3 -7 -7 -6 -22 2 -18 9 -29 20 -31 29 -6 47 5 40 24
-6 16 -7 16 -18 0 -19 -26 -41 -21 -23 6 13 20 55 37 42 17 -3 -5 0 -9 6 -9 6
0 9 -4 6 -9 -3 -4 6 -13 20 -20 30 -13 22 -34 -9 -26 -20 6 -21 5 -4 -8 20
-17 22 -28 5 -23 -7 1 -10 1 -5 -1 14 -9 7 -33 -10 -34 -13 0 -14 -2 -4 -6 8
-3 20 2 27 11 12 16 13 16 24 -4 9 -17 14 -19 26 -9 20 17 28 5 9 -14 -18 -19
-20 -34 -2 -18 8 6 17 8 21 4 4 -4 4 0 0 10 -7 20 2 22 20 4 15 -14 17 -47 4
-47 -5 0 -6 -4 -3 -10 3 -5 11 -10 16 -10 6 0 8 4 4 9 -11 19 17 23 36 5 11
-10 19 -12 19 -6 0 7 5 12 10 12 6 0 5 -8 -2 -19 -8 -14 -16 -17 -24 -10 -8 6
-13 3 -17 -10 -3 -15 -1 -18 11 -14 10 4 13 2 8 -5 -5 -8 1 -12 18 -12 14 0
31 -9 39 -20 8 -11 17 -17 22 -12 5 4 5 1 1 -5 -4 -8 -1 -13 9 -13 9 0 13 4
10 10 -3 6 1 7 10 4 14 -6 14 -8 -1 -19 -13 -9 -14 -14 -5 -19 9 -6 9 -11 0
-23 -11 -12 -8 -13 15 -7 20 5 26 3 24 -7 -2 -8 3 -13 10 -11 11 2 13 -3 16
-40 1 -7 -5 -12 -12 -10 -8 1 -11 -2 -7 -8 3 -6 11 -8 16 -5 5 4 12 -1 15 -10
5 -13 9 -13 24 5 16 18 19 18 30 5 9 -11 10 -19 3 -26 -15 -15 -4 -47 18 -54
11 -4 17 -11 14 -16 -12 -18 5 -9 31 19 15 15 22 20 16 11 -10 -13 -8 -19 6
-32 9 -8 20 -15 24 -14 3 1 9 -1 13 -5 10 -10 -17 -4 -43 10 -18 11 -23 10
-28 -2 -3 -8 -1 -23 6 -33 9 -16 10 -15 4 6 -4 16 -3 21 5 17 6 -4 11 -15 11
-24 0 -10 3 -13 8 -7 4 6 18 11 32 12 21 2 22 1 6 -5 -12 -5 -16 -11 -9 -15 6
-4 9 -17 6 -30 -4 -19 -3 -19 6 -5 14 21 47 16 43 -6 -2 -9 2 -16 9 -16 6 0 1
-9 -12 -21 -13 -11 -19 -18 -12 -15 6 4 14 2 18 -4 3 -6 17 -8 30 -6 14 3 27
0 30 -5 4 -5 12 -9 18 -9 7 0 6 4 -3 10 -8 5 -11 12 -7 16 9 9 18 1 22 -23 1
-10 8 -17 14 -15 6 1 11 -2 11 -7 0 -6 -9 -9 -19 -8 -11 0 -17 5 -15 9 9 14
-7 9 -22 -7 -14 -13 -13 -15 5 -15 11 0 23 -5 27 -12 4 -6 3 -8 -3 -5 -5 3
-10 0 -10 -8 0 -20 2 -19 28 7 12 13 19 17 15 11 -4 -7 -2 -13 4 -13 6 0 -1
-11 -16 -25 -15 -14 -22 -25 -16 -25 6 0 16 8 21 18 8 13 11 14 11 2 0 -11 5
-9 18 7 14 18 20 20 33 10 24 -19 30 -44 11 -52 -15 -6 -15 -8 2 -21 11 -8 14
-14 8 -14 -7 0 -12 -5 -12 -10 0 -7 6 -7 19 -1 15 9 20 7 25 -12 8 -32 7 -39
-5 -31 -7 4 -10 1 -7 -6 2 -8 11 -16 19 -18 8 -3 11 -1 7 3 -9 10 10 35 26 35
6 0 4 -5 -4 -10 -13 -8 -13 -10 2 -10 9 0 18 -6 20 -12 4 -10 10 -10 32 0 27
12 46 9 46 -8 0 -5 -6 -7 -14 -4 -11 4 -13 0 -9 -18 4 -13 10 -26 15 -29 5 -3
10 -15 11 -26 0 -12 6 -19 13 -16 7 2 15 -1 20 -8 4 -7 3 -10 -3 -6 -6 4 -13
-1 -16 -12 -2 -11 3 -23 14 -30 21 -13 25 -2 7 18 -11 10 -9 11 6 5 15 -6 18
-4 14 8 -3 8 -1 15 5 15 7 0 12 -10 12 -23 0 -12 -3 -20 -7 -17 -16 9 -8 -10
10 -24 9 -8 11 -11 3 -7 -10 5 -12 3 -6 -6 6 -10 14 -6 31 16 20 25 23 26 17
6 -3 -12 -9 -22 -13 -22 -4 0 -11 -7 -14 -16 -3 -8 -2 -12 4 -9 12 7 13 -7 3
-21 -5 -5 2 2 15 16 13 14 20 18 17 9 -4 -10 -1 -20 6 -25 7 -4 10 -3 5 4 -3
6 -2 13 3 16 5 4 8 -2 6 -11 -2 -10 -4 -22 -4 -26 -1 -5 -7 -5 -13 -1 -10 5
-10 4 -1 -6 17 -19 48 -23 33 -6 -8 10 -5 12 15 9 21 -4 22 -7 10 -19 -7 -8
-18 -14 -24 -14 -11 0 -26 -39 -18 -47 3 -2 8 5 12 17 5 15 13 20 26 17 10 -3
17 -1 14 3 -8 13 15 24 27 12 6 -6 2 -17 -13 -31 -12 -11 -19 -24 -16 -28 4
-3 7 -2 7 3 0 5 9 10 20 11 11 1 20 -3 20 -8 0 -6 10 -8 23 -4 19 5 20 4 5 -7
-15 -11 -15 -13 5 -23 12 -6 23 -16 23 -23 1 -7 2 -16 3 -22 0 -5 8 -7 16 -4
8 4 12 10 9 15 -3 5 3 6 12 2 11 -4 13 -8 6 -11 -8 -2 -9 -9 -3 -20 9 -17 11
-24 11 -39 0 -5 5 -1 10 7 6 9 10 10 10 3 0 -19 -21 -27 -31 -12 -6 10 -9 10
-9 2 0 -7 10 -17 21 -24 12 -6 19 -7 16 -2 -3 5 9 9 27 9 27 0 31 -2 20 -13
-7 -7 -22 -13 -33 -13 -11 0 -25 -9 -31 -20 -7 -14 -7 -20 0 -20 5 0 10 7 10
15 0 12 10 15 39 14 38 -3 39 -3 24 -26 -15 -23 -15 -23 11 -13 18 6 25 6 21
0 -3 -6 -2 -10 4 -10 5 0 11 5 13 11 2 7 8 6 15 -3 10 -11 6 -14 -19 -16 -40
-3 -51 -12 -15 -12 15 0 27 -4 27 -10 0 -5 7 -10 16 -10 8 0 13 4 9 9 -3 5 -1
12 5 16 5 3 10 -1 10 -9 0 -14 298 -16 3030 -16 l3030 0 0 4000 0 4000 -4000
0 -4000 0 0 -2980z m2503 1674 c165 -66 301 -132 445 -217 133 -79 138 -94 65
-214 -62 -103 -131 -193 -148 -193 -9 0 -69 35 -134 78 -125 83 -380 217 -518
273 -46 18 -83 36 -83 41 0 9 100 164 152 236 25 33 46 52 59 52 11 0 84 -25
162 -56z m3729 -6 c122 -96 228 -223 228 -273 0 -22 -54 -73 -110 -105 -25
-14 -207 -187 -415 -393 l-370 -369 70 35 c248 122 527 142 767 54 104 -38
175 -84 263 -172 92 -92 152 -195 187 -322 30 -113 30 -344 -1 -458 -90 -332
-386 -563 -806 -630 -514 -82 -863 51 -935 354 -48 203 77 405 291 472 77 24
248 26 334 4 193 -50 359 -209 416 -402 7 -24 14 -43 16 -43 11 0 75 38 130
76 130 92 188 220 186 409 -1 120 -17 185 -68 264 -61 97 -175 175 -296 201
-93 21 -305 8 -412 -24 -258 -77 -415 -179 -694 -449 -94 -92 -180 -167 -189
-167 -22 0 -177 158 -221 223 -17 27 -29 55 -26 62 3 8 78 77 167 154 273 234
723 684 1001 1001 76 87 104 126 93 128 -25 5 -615 -117 -696 -144 -128 -42
-148 -33 -196 94 -21 55 -86 270 -86 283 0 2 66 3 147 1 168 -4 362 17 688 73
218 38 339 66 382 89 51 28 96 20 155 -26z m-2365 -203 c70 -32 137 -96 170
-163 38 -79 44 -194 12 -277 -28 -75 -99 -152 -176 -191 -52 -25 -68 -29 -153
-29 -89 0 -99 2 -158 34 -75 41 -125 94 -161 170 -22 48 -26 69 -26 146 1 77
5 98 28 146 44 92 142 168 240 189 63 13 165 2 224 -25z m-1395 -596 c59 -44
113 -89 119 -100 9 -18 4 -30 -30 -79 -50 -72 -72 -129 -74 -195 -2 -82 39
-129 273 -317 155 -124 255 -235 308 -343 42 -85 55 -155 50 -272 -3 -91 -7
-107 -41 -176 -103 -209 -361 -320 -671 -288 -126 12 -251 42 -273 64 -8 8
-23 65 -34 126 -10 61 -30 144 -43 184 -13 40 -23 73 -22 75 2 1 50 -13 107
-32 140 -47 273 -69 376 -63 140 8 203 62 203 172 -1 103 -48 164 -278 358
-159 135 -227 211 -275 306 -27 56 -32 77 -35 160 -5 113 12 190 63 290 37 74
140 211 158 211 7 0 60 -36 119 -81z m1075 -507 c99 -83 248 -247 321 -354 76
-113 132 -217 132 -247 0 -25 -115 -132 -208 -192 -57 -38 -78 -46 -92 -39 -9
5 -34 44 -54 87 -88 186 -219 374 -362 523 l-85 88 123 91 c68 49 133 90 145
91 12 0 48 -22 80 -48z m-2159 -496 c73 -156 118 -197 195 -174 33 9 67 37
156 125 62 63 114 112 116 111 1 -2 14 -38 30 -81 15 -43 45 -105 66 -137 22
-31 39 -69 39 -82 0 -33 -42 -89 -127 -169 -133 -125 -245 -176 -366 -166
-139 12 -260 102 -339 253 -41 79 -80 197 -72 219 5 13 124 117 198 173 48 36
57 30 104 -72z m4762 -1908 c68 -117 158 -271 200 -343 42 -71 141 -240 220
-375 79 -135 210 -359 291 -498 82 -140 149 -255 149 -258 0 -2 -1375 -4
-3055 -4 -1680 0 -3055 2 -3055 5 0 2 26 48 58 102 112 187 291 489 423 713
72 124 175 297 227 385 179 300 208 350 247 418 l39 67 2066 0 2066 0 124
-212z m-6070 -1024 c0 -8 -5 -12 -10 -9 -6 4 -8 11 -5 16 9 14 15 11 15 -7z
m-43 -35 c2 -16 -1 -19 -9 -11 -5 5 -7 15 -4 21 10 15 12 14 13 -10z m383
-263 c0 -3 -4 -8 -10 -11 -5 -3 -10 -1 -10 4 0 6 5 11 10 11 6 0 10 -2 10 -4z
m95 -196 c7 -24 7 -24 -9 -5 -8 11 -16 27 -16 35 0 20 16 1 25 -30z m25 26 c0
-3 -4 -8 -10 -11 -5 -3 -10 -1 -10 4 0 6 5 11 10 11 6 0 10 -2 10 -4z m38 -24
c6 -18 -15 -14 -22 4 -4 10 -1 14 6 12 6 -2 14 -10 16 -16z m227 -242 c3 -5 1
-10 -4 -10 -6 0 -11 5 -11 10 0 6 2 10 4 10 3 0 8 -4 11 -10z m25 -50 c0 -5
-5 -10 -11 -10 -5 0 -7 5 -4 10 3 6 8 10 11 10 2 0 4 -4 4 -10z m4 -41 c-3 -5
-10 -7 -15 -3 -5 3 -7 10 -3 15 3 5 10 7 15 3 5 -3 7 -10 3 -15z m56 17 c0 -3
-4 -8 -10 -11 -5 -3 -10 -1 -10 4 0 6 5 11 10 11 6 0 10 -2 10 -4z m5 -76 c3
-5 1 -10 -4 -10 -6 0 -11 5 -11 10 0 6 2 10 4 10 3 0 8 -4 11 -10z m39 -2 c-3
-4 -9 -8 -15 -8 -5 0 -9 4 -9 8 0 5 7 9 15 9 8 0 12 -4 9 -9z m216 -168 c0 -5
-5 -10 -11 -10 -5 0 -7 5 -4 10 3 6 8 10 11 10 2 0 4 -4 4 -10z m-60 -18 c0
-11 -39 -12 -45 -1 -4 5 5 9 19 9 14 0 26 -4 26 -8z m261 -255 c-10 -9 -11 -8
-5 6 3 10 9 15 12 12 3 -3 0 -11 -7 -18z m254 -217 c3 -5 -1 -10 -10 -10 -9 0
-13 5 -10 10 3 6 8 10 10 10 2 0 7 -4 10 -10z m208 -260 c-3 -12 -8 -19 -11
-16 -5 6 5 36 12 36 2 0 2 -9 -1 -20z m77 -70 c0 -5 -2 -10 -4 -10 -3 0 -8 5
-11 10 -3 6 -1 10 4 10 6 0 11 -4 11 -10z"/>
<path d="M5494 4610 c-11 -4 -33 -22 -47 -40 -51 -61 -25 -151 56 -193 51 -26
169 -41 260 -32 l77 7 -7 26 c-23 98 -91 193 -158 223 -42 20 -143 25 -181 9z"/>
<path d="M3632 6333 c-116 -57 -133 -221 -32 -307 82 -69 219 -52 276 33 63
96 26 236 -73 277 -44 19 -131 17 -171 -3z"/>
<path d="M85 1849 c-4 -11 -4 -23 -1 -26 3 -4 6 1 6 11 0 9 4 14 10 11 6 -3 7
1 4 9 -8 21 -11 20 -19 -5z"/>
<path d="M133 1832 c0 -12 5 -22 9 -22 11 0 10 12 -2 30 -7 12 -9 10 -7 -8z"/>
<path d="M217 1777 c-3 -8 -2 -20 3 -26 5 -9 8 -4 8 13 0 29 -3 32 -11 13z"/>
<path d="M224 1684 c-18 -14 -18 -15 4 -4 12 6 22 13 22 15 0 8 -5 6 -26 -11z"/>
<path d="M380 1610 c0 -5 5 -10 11 -10 5 0 7 5 4 10 -3 6 -8 10 -11 10 -2 0
-4 -4 -4 -10z"/>
<path d="M619 1283 c-13 -17 -13 -17 4 -4 16 13 20 13 29 0 8 -12 9 -12 6 0
-6 22 -23 24 -39 4z"/>
<path d="M690 1250 c0 -5 5 -10 11 -10 5 0 7 5 4 10 -3 6 -8 10 -11 10 -2 0
-4 -4 -4 -10z"/>
<path d="M647 1239 c7 -7 15 -10 18 -7 3 3 -2 9 -12 12 -14 6 -15 5 -6 -5z"/>
<path d="M690 1200 c0 -5 7 -7 15 -4 8 4 15 8 15 10 0 2 -7 4 -15 4 -8 0 -15
-4 -15 -10z"/>
<path d="M770 1159 c0 -5 5 -7 10 -4 6 3 10 8 10 11 0 2 -4 4 -10 4 -5 0 -10
-5 -10 -11z"/>
<path d="M850 1099 c0 -5 5 -7 10 -4 6 3 10 8 10 11 0 2 -4 4 -10 4 -5 0 -10
-5 -10 -11z"/>
<path d="M835 1070 c3 -5 10 -10 16 -10 5 0 9 5 9 10 0 6 -7 10 -16 10 -8 0
-12 -4 -9 -10z"/>
<path d="M959 943 c-13 -16 -12 -17 4 -4 9 7 17 15 17 17 0 8 -8 3 -21 -13z"/>
<path d="M1010 922 c0 -12 3 -12 15 -2 8 7 15 13 15 15 0 1 -7 2 -15 2 -8 0
-15 -7 -15 -15z"/>
<path d="M962 914 c-7 -8 -8 -14 -3 -14 10 0 25 19 20 25 -2 1 -10 -3 -17 -11z"/>
<path d="M1203 765 c0 -8 4 -15 9 -15 5 0 6 -6 2 -12 -5 -10 -4 -10 7 0 11 10
11 15 -2 28 -14 13 -16 13 -16 -1z"/>
<path d="M1160 721 c0 -6 4 -13 10 -16 6 -3 7 1 4 9 -7 18 -14 21 -14 7z"/>
<path d="M1357 591 c-3 -11 -1 -22 4 -25 5 -2 4 -3 -3 -2 -7 2 -12 10 -10 20
4 22 -11 20 -33 -4 -10 -11 -13 -20 -7 -20 7 0 12 5 12 12 0 6 9 3 20 -7 12
-10 18 -25 15 -32 -2 -8 -1 -12 4 -8 14 8 24 66 13 77 -6 6 -11 2 -15 -11z"/>
<path d="M1386 533 c-6 -14 -5 -15 5 -6 7 7 10 15 7 18 -3 3 -9 -2 -12 -12z"/>
<path d="M1440 393 c14 -22 30 -22 30 -1 0 6 -3 8 -7 5 -3 -4 -13 -1 -21 6
-13 11 -14 9 -2 -10z"/>
<path d="M1530 341 c0 -6 4 -13 10 -16 6 -3 7 1 4 9 -7 18 -14 21 -14 7z"/>
<path d="M1635 260 c-3 -5 1 -10 9 -10 9 0 16 5 16 10 0 6 -4 10 -9 10 -6 0
-13 -4 -16 -10z"/>
<path d="M1641 231 c-11 -7 -9 -10 8 -16 11 -3 21 -11 21 -16 0 -6 5 -7 11 -3
8 4 3 12 -12 21 -24 13 -23 13 9 9 18 -2 30 0 26 5 -7 11 -45 11 -63 0z"/>
<path d="M1722 183 c-18 -7 -4 -23 21 -22 12 0 16 3 9 6 -6 2 -10 9 -6 14 6
10 -3 11 -24 2z"/>
<path d="M1680 163 c0 -5 10 -18 23 -29 l22 -19 -20 25 c-11 14 -21 27 -22 29
-2 2 -3 0 -3 -6z"/>
<path d="M1725 111 c-3 -6 3 -9 14 -8 11 0 17 5 15 9 -7 11 -22 10 -29 -1z"/>
</g>
</svg>
